<?xml version="1.0" standalone="no"?>
<!DOCTYPE svg PUBLIC "-//W3C//DTD SVG 20010904//EN"
 "http://www.w3.org/TR/2001/REC-SVG-20010904/DTD/svg10.dtd">
<svg version="1.0" xmlns="http://www.w3.org/2000/svg"
 width="1024.000000pt" height="1024.000000pt" viewBox="0 0 1024.000000 1024.000000"
 preserveAspectRatio="xMidYMid meet">

<g transform="translate(0.000000,1024.000000) scale(0.100000,-0.100000)"
fill="#000000" stroke="none">
<path d="M3200 8122 c0 -10 -9 -115 -20 -233 -23 -254 -52 -592 -85 -1014 -8
-99 -21 -263 -29 -365 -9 -102 -23 -277 -31 -390 -9 -113 -20 -250 -25 -305
-5 -55 -14 -167 -20 -250 -6 -82 -17 -233 -25 -335 -9 -102 -22 -277 -31 -390
-22 -305 -38 -500 -89 -1130 -9 -102 -20 -223 -25 -270 -11 -100 -23 -229 -51
-585 -11 -143 -29 -359 -39 -480 -22 -253 -45 -539 -60 -740 -22 -293 -57
-733 -66 -817 l-6 -58 1166 0 1166 1 4 22 c3 12 16 184 31 382 14 198 32 419
40 490 7 72 16 186 20 255 3 69 10 161 15 205 5 44 16 170 25 280 8 110 17
216 20 235 3 19 12 127 20 240 21 292 27 350 34 350 10 0 121 -228 121 -248 0
-9 12 -39 26 -67 95 -180 132 -258 137 -285 4 -17 17 -45 30 -63 13 -18 32
-52 42 -77 11 -25 32 -67 47 -93 16 -27 32 -66 37 -87 5 -21 18 -51 29 -67 28
-40 132 -252 132 -271 0 -8 16 -40 34 -71 19 -31 40 -69 46 -85 5 -15 45 -98
87 -184 42 -87 112 -231 155 -322 44 -91 86 -178 95 -195 60 -119 114 -229
138 -282 l29 -63 652 0 c359 0 655 4 658 8 3 5 -11 31 -30 58 -20 27 -58 94
-86 149 -28 55 -69 128 -91 162 -22 34 -41 70 -42 80 -1 11 -38 77 -82 148
-44 72 -84 141 -88 155 -7 25 -50 100 -110 195 -17 28 -48 84 -68 125 -21 41
-47 91 -59 110 -72 118 -118 201 -118 212 0 7 -12 31 -27 53 -37 54 -111 183
-119 207 -3 11 -35 68 -70 126 -35 58 -64 113 -64 123 0 10 -10 30 -22 46 -13
15 -32 44 -42 63 -10 19 -32 55 -48 79 -16 25 -38 67 -49 94 -11 27 -31 64
-44 81 -14 18 -25 36 -25 40 0 4 -27 51 -60 105 -32 54 -62 111 -66 126 -3 14
-22 48 -40 75 -18 27 -66 109 -105 182 -39 73 -75 138 -80 144 -5 6 -31 55
-59 109 -28 55 -57 107 -65 116 -8 8 -15 20 -15 26 0 5 -13 27 -30 49 -16 21
-30 44 -30 49 0 21 -71 151 -133 245 -16 23 -35 60 -43 82 -7 22 -23 53 -35
69 -32 45 -99 170 -99 184 0 7 26 42 58 77 31 36 96 109 143 164 48 54 120
137 160 183 41 46 97 113 124 147 47 60 165 199 320 378 39 45 82 97 97 116
14 19 51 62 82 94 31 33 56 63 56 68 0 5 26 37 58 71 31 35 94 108 138 163 45
54 92 110 104 124 28 31 162 194 212 258 21 26 61 74 88 107 28 33 71 85 95
115 155 191 214 261 260 310 29 30 59 67 66 82 8 15 37 51 64 80 28 29 59 66
69 82 10 15 41 54 70 86 28 31 70 81 93 111 24 30 63 79 88 109 25 30 58 70
73 89 15 19 61 73 103 120 41 47 95 113 119 146 23 33 56 74 71 90 54 55 99
112 99 124 0 8 -164 10 -627 9 l-628 -3 -3 -25 c-2 -14 -26 -47 -55 -75 -29
-28 -70 -78 -92 -110 -22 -33 -59 -78 -81 -100 -23 -22 -47 -51 -53 -63 -11
-21 -92 -122 -209 -261 -20 -24 -50 -63 -67 -85 -52 -71 -141 -180 -170 -206
-15 -14 -37 -45 -50 -70 -13 -25 -49 -72 -80 -105 -31 -33 -63 -75 -71 -92 -8
-18 -18 -33 -23 -33 -5 0 -61 -66 -125 -147 -64 -82 -144 -183 -178 -225 -35
-42 -81 -100 -103 -128 -22 -28 -61 -77 -87 -108 -27 -31 -72 -88 -101 -127
-30 -38 -67 -84 -84 -100 -16 -17 -42 -50 -58 -75 -16 -25 -52 -70 -81 -101
-30 -30 -60 -72 -69 -92 -8 -20 -25 -43 -36 -49 -11 -7 -30 -31 -41 -53 -11
-22 -37 -62 -57 -90 -21 -27 -46 -72 -55 -98 -30 -82 -133 -168 -149 -124 -10
26 -36 -147 -62 -406 l-13 -139 -49 -56 c-27 -32 -57 -70 -67 -86 -10 -16 -39
-50 -65 -75 -54 -53 -97 -111 -82 -111 6 0 59 49 118 108 114 115 150 142 157
120 21 -64 32 -119 51 -255 5 -29 11 -40 20 -37 7 3 15 -5 19 -21 17 -67 57
-131 99 -157 24 -15 54 -37 67 -48 13 -11 26 -20 29 -20 3 0 27 -20 52 -44 31
-29 44 -48 39 -57 -4 -8 -22 -65 -40 -128 -18 -62 -41 -129 -52 -149 -10 -20
-18 -42 -18 -50 0 -7 -16 -47 -35 -88 -19 -41 -35 -85 -35 -98 0 -13 -14 -54
-31 -92 -36 -80 -124 -318 -134 -365 -7 -31 -66 -180 -106 -266 -10 -24 -19
-45 -19 -47 0 -3 -27 -68 -60 -145 -33 -78 -82 -201 -109 -274 -47 -125 -95
-244 -126 -313 -8 -17 -38 -91 -66 -165 -28 -74 -63 -161 -79 -194 -15 -33
-48 -115 -73 -182 -38 -100 -101 -244 -148 -335 -5 -10 -9 -25 -9 -33 0 -23
-130 -279 -146 -288 -9 -5 -19 -18 -24 -30 -8 -20 -9 -19 -9 8 -1 61 60 381
79 417 6 10 14 34 19 55 5 21 27 110 50 197 23 88 41 168 41 178 0 10 4 26 10
36 5 9 17 46 26 82 33 130 62 237 87 320 14 47 28 101 32 120 3 19 22 85 40
145 19 61 42 137 50 170 9 33 35 119 57 190 23 72 40 145 39 163 -1 18 -13 70
-27 115 -48 159 -110 416 -139 574 l-22 122 21 35 c44 72 117 173 165 226 l49
55 39 -28 c21 -14 77 -66 125 -114 48 -48 90 -84 94 -80 4 3 -5 31 -20 61 -19
38 -42 65 -76 90 -27 20 -68 52 -90 72 -45 41 -140 102 -220 142 -30 14 -57
28 -59 29 -1 1 9 14 23 30 14 15 26 35 26 43 0 9 13 29 28 46 32 33 44 57 34
70 -4 5 -6 8 -4 7 4 -1 34 14 71 37 13 8 63 69 112 135 100 137 123 167 185
249 60 80 60 89 -4 57 -64 -32 -193 -64 -257 -63 -33 1 -72 -5 -86 -12 -16 -8
-31 -10 -36 -5 -20 20 -214 33 -383 27 -14 -1 -96 2 -184 7 l-158 8 -34 34
c-40 40 -69 94 -89 166 l-15 52 6 -60 c15 -162 50 -255 128 -344 18 -20 54
-64 80 -99 55 -72 128 -152 140 -152 15 0 32 -26 46 -70 14 -45 70 -110 94
-110 7 0 25 -11 41 -24 27 -23 27 -24 6 -31 -12 -3 -34 -5 -49 -4 -29 3 -158
-37 -167 -52 -3 -5 -39 -34 -80 -65 -41 -31 -75 -59 -75 -63 0 -4 -23 -34 -50
-66 -58 -69 -133 -210 -148 -278 -10 -47 1 -58 12 -12 8 32 62 111 81 119 8 3
23 19 34 37 52 86 167 169 231 168 51 0 107 -42 168 -124 32 -44 66 -86 75
-94 23 -19 21 -50 -6 -91 -60 -89 -101 -222 -156 -510 -47 -242 -69 -383 -85
-545 -9 -82 -25 -235 -35 -340 -41 -388 -44 -435 -37 -675 13 -453 24 -596 57
-691 10 -30 19 -67 19 -82 0 -14 5 -29 10 -32 6 -3 10 -12 10 -18 0 -15 -40
-17 -40 -2 -1 10 -51 151 -134 375 -26 69 -55 150 -65 180 -34 99 -62 174 -77
207 -8 17 -18 51 -23 75 -5 24 -23 75 -39 114 -34 82 -59 162 -151 489 -31
109 -81 305 -108 420 -8 33 -23 89 -33 125 -11 36 -26 103 -35 150 -8 47 -22
110 -30 140 -19 67 -53 231 -65 320 -6 36 -16 110 -24 165 -32 214 -32 221 3
263 45 53 83 85 263 223 116 88 137 130 163 322 19 141 19 142 53 156 29 12
82 11 82 -1 0 -16 134 -142 138 -130 3 11 -24 51 -62 92 -8 8 -30 35 -50 60
-27 35 -32 47 -23 58 9 11 6 18 -13 33 -14 10 -30 19 -37 19 -6 0 -21 12 -32
26 -20 25 -21 40 -22 253 0 124 -6 271 -12 326 l-12 100 -35 0 c-29 0 -44 9
-86 50 -44 43 -54 61 -77 135 -42 137 -51 210 -38 297 19 129 57 167 130 130
28 -14 41 -27 41 -41 0 -12 5 -28 10 -36 15 -24 28 0 34 65 22 219 30 343 31
510 0 105 2 197 3 206 4 31 83 138 118 160 31 19 46 21 112 17 73 -5 123 -20
312 -92 44 -16 76 -20 155 -20 119 2 169 15 380 102 l69 29 51 -19 c27 -11 82
-34 121 -53 65 -30 72 -37 90 -81 14 -37 18 -65 14 -114 -9 -125 -5 -336 8
-400 8 -36 33 -123 57 -195 82 -246 78 -223 59 -333 -9 -53 -25 -114 -35 -134
-23 -45 -17 -48 17 -10 39 44 73 106 78 143 3 19 5 34 6 34 1 0 3 8 5 18 2 9
0 15 -5 12 -12 -7 -21 71 -11 97 8 18 10 19 10 5 1 -30 26 -13 27 19 3 49 -7
88 -18 72 -7 -9 -8 -7 -2 7 4 11 9 40 12 65 4 40 3 43 -12 31 -9 -7 -16 -19
-16 -26 0 -7 -6 -18 -14 -24 -12 -10 -16 -5 -25 22 -9 27 -8 71 6 198 10 90
18 227 18 304 0 148 -7 177 -54 219 -12 11 -21 25 -21 32 0 6 -13 43 -29 80
-16 38 -41 105 -56 149 -15 44 -41 106 -57 138 -15 31 -31 77 -34 101 -6 40
-10 45 -53 64 -53 23 -258 54 -484 73 l-149 13 7 71 c4 38 13 120 21 180 19
140 54 444 54 468 0 16 -32 17 -535 17 -509 0 -535 -1 -535 -18z m277 -1978
c15 -59 17 -82 4 -68 -16 15 -41 126 -28 121 6 -2 17 -26 24 -53z m1654 -222
c-8 -14 -10 -13 -16 10 -4 15 -3 32 1 39 11 19 26 -29 15 -49z m-4 -54 c-3 -8
-6 -5 -6 6 -1 11 2 17 5 13 3 -3 4 -12 1 -19z m-1549 -1258 c11 -17 10 -20 -7
-20 -22 0 -35 15 -26 30 9 15 19 12 33 -10z"/>
<path d="M4173 6117 l-39 -36 -79 10 c-44 6 -114 16 -155 24 -41 8 -113 17
-160 21 -70 5 -88 4 -98 -9 -11 -13 -7 -20 30 -45 24 -16 53 -32 66 -36 25 -8
27 -17 10 -34 -15 -15 -72 -16 -99 -1 -11 5 -27 9 -36 7 -11 -2 -1 -18 36 -57
44 -46 62 -57 138 -82 69 -23 106 -30 173 -30 47 0 98 4 113 10 24 9 26 14 17
31 -13 25 -2 26 16 3 12 -15 15 -16 23 -4 7 11 11 5 14 -25 3 -21 4 -1 4 46
-1 92 13 135 55 164 37 26 64 19 103 -26 28 -34 34 -48 30 -70 -4 -15 -3 -52
0 -82 6 -42 11 -53 22 -49 10 4 12 14 8 34 -7 32 0 36 28 14 11 -7 26 -11 35
-8 10 4 13 2 8 -5 -9 -15 19 -28 84 -40 33 -6 62 -6 74 -1 18 8 17 9 -5 4 -18
-3 -29 0 -33 10 -3 9 0 15 10 15 8 0 12 5 8 11 -3 6 -15 8 -27 5 -11 -3 -16
-1 -11 4 14 13 77 15 100 2 23 -12 125 -12 117 1 -2 4 4 7 14 8 10 0 13 3 6 6
-23 9 -14 20 44 59 53 35 55 38 33 46 -13 5 -46 12 -74 16 l-51 7 60 19 c33
10 66 19 72 21 9 3 10 11 4 27 -7 21 -15 23 -85 26 -42 2 -103 -2 -134 -8 -31
-6 -103 -14 -160 -17 -95 -5 -106 -4 -132 16 -17 12 -42 21 -57 20 -16 -1 -40
1 -55 5 -21 6 -33 1 -65 -27z m553 -202 c-23 -17 -42 -19 -51 -6 -5 10 16 18
50 20 20 0 20 0 1 -14z m-213 -32 c-7 -2 -21 -2 -30 0 -10 3 -4 5 12 5 17 0
24 -2 18 -5z"/>
<path d="M3458 5853 c-39 -43 -48 -67 -48 -133 0 -68 14 -101 59 -144 17 -17
31 -38 31 -48 0 -10 5 -18 10 -18 21 0 10 57 -16 81 -32 29 -54 78 -54 118 0
16 14 55 30 86 44 84 39 112 -12 58z"/>
<path d="M5034 5728 c0 -18 -2 -51 -6 -73 -7 -35 -5 -32 12 15 23 65 25 90 7
90 -9 0 -13 -12 -13 -32z"/>
<path d="M4105 5714 c-9 -21 -14 -48 -13 -59 2 -13 10 -1 21 34 21 62 15 81
-8 25z"/>
<path d="M4343 5733 c8 -13 30 -66 31 -75 2 -13 16 -21 16 -9 0 20 -27 78 -41
86 -7 5 -10 4 -6 -2z"/>
<path d="M4323 5609 c-17 -17 -103 -22 -145 -8 -32 10 -42 11 -46 1 -5 -16
-39 -16 -45 1 -4 8 -6 6 -6 -4 -1 -9 -11 -28 -22 -43 -12 -15 -19 -29 -17 -31
3 -4 137 -16 207 -19 14 -1 27 -9 31 -21 7 -19 7 -19 18 2 9 16 25 23 72 28
33 4 60 9 60 11 0 3 -12 16 -27 29 -31 27 -15 34 22 9 14 -9 25 -12 25 -8 0
22 -112 68 -127 53z m-53 -49 c0 -5 -16 -10 -35 -10 -19 0 -35 5 -35 10 0 6
16 10 35 10 19 0 35 -4 35 -10z m-7 -27 c-7 -2 -21 -2 -30 0 -10 3 -4 5 12 5
17 0 24 -2 18 -5z"/>
<path d="M4009 5533 l-24 -28 28 24 c25 23 32 31 24 31 -2 0 -14 -12 -28 -27z"/>
<path d="M4150 5370 c0 -14 -78 -63 -119 -75 -26 -7 -40 -19 -50 -42 -8 -18
-27 -37 -42 -43 -24 -10 -32 -9 -55 9 -41 32 -54 25 -16 -9 42 -39 67 -38 108
5 33 35 51 42 173 64 24 5 74 5 110 0 36 -4 91 -11 121 -14 l55 -7 -30 22
c-17 13 -22 19 -10 15 11 -4 35 -13 54 -20 24 -9 41 -25 55 -53 18 -34 28 -42
65 -52 50 -13 66 -7 23 8 -16 6 -44 28 -62 51 -31 38 -154 111 -188 111 -6 0
-12 9 -12 20 0 11 -4 20 -10 20 -5 0 -10 -12 -10 -26 0 -21 -4 -25 -17 -19
-23 9 -118 10 -132 1 -6 -4 -11 -3 -11 3 0 5 5 13 10 16 6 3 10 10 10 16 0 5
-4 9 -10 9 -5 0 -10 -4 -10 -10z"/>
<path d="M4241 5258 c0 -11 -14 -21 -33 -26 -30 -8 -28 -9 32 -15 69 -6 93 -1
42 9 -21 4 -32 13 -35 28 -3 14 -5 16 -6 4z"/>
<path d="M4036 5172 c-3 -6 -1 -14 5 -17 15 -10 25 3 12 16 -7 7 -13 7 -17 1z"/>
<path d="M4405 5160 c-19 -8 -19 -9 2 -9 12 -1 25 4 28 9 7 12 -2 12 -30 0z"/>
<path d="M4158 5099 c-10 -5 -18 -15 -18 -21 0 -22 43 -48 81 -48 36 0 88 17
90 29 8 37 5 48 -12 44 -10 -3 -17 -8 -15 -12 2 -3 -18 -4 -45 -3 -27 2 -46 8
-43 13 7 12 -17 11 -38 -2z"/>
<path d="M3521 3484 c0 -11 3 -14 6 -6 3 7 2 16 -1 19 -3 4 -6 -2 -5 -13z"/>
<path d="M10080 80 l0 -80 80 0 80 0 0 80 0 80 -80 0 -80 0 0 -80z"/>
</g>
</svg>
